<?xml version="1.0" encoding="utf-8"?>
<!-- Generator: Adobe Illustrator 27.9.0, SVG Export Plug-In . SVG Version: 6.00 Build 0)  -->
<svg version="1.1" id="Warstwa_1" xmlns="http://www.w3.org/2000/svg" xmlns:xlink="http://www.w3.org/1999/xlink" x="0px" y="0px"
	 viewBox="0 0 413.5 79" style="enable-background:new 0 0 413.5 79;" xml:space="preserve">
<style type="text/css">
	.st0{fill:#FFFFFF;}
	.st1{fill:#679F37;}
	.st2{fill:#346A2D;}
	.st3{fill:url(#SVGID_1_);}
	.st4{fill:none;}
	.st5{fill:url(#SVGID_00000088811515528345963960000012503887427088092092_);}
</style>
<g id="logo" transform="translate(20700 19126.5)">
	<g id="Group_108" transform="translate(-18 -211.674)">
		<path id="Path_165" class="st0" d="M-20574.3-18868.6v13.2h-1.7v-6h-6.7v6h-1.7v-13.2h1.7v5.8h6.7v-5.8H-20574.3z M-20572-18860.6
			c0-1,0.2-1.9,0.6-2.8c0.4-0.8,1-1.4,1.8-1.9c0.8-0.4,1.6-0.7,2.5-0.7c0.8,0,1.7,0.2,2.4,0.6c0.6,0.3,1.1,0.9,1.5,1.5v-1.9h1.7
			v10.4h-1.7v-1.9c-0.4,0.6-0.9,1.2-1.5,1.5c-0.7,0.4-1.5,0.6-2.4,0.6c-0.9,0-1.8-0.2-2.5-0.7c-0.8-0.5-1.4-1.1-1.8-1.9
			C-20571.8-18858.6-20572.1-18859.6-20572-18860.6L-20572-18860.6z M-20563.2-18860.6c0-0.7-0.1-1.4-0.5-2.1
			c-0.3-0.6-0.7-1-1.3-1.3c-0.5-0.3-1.2-0.5-1.8-0.5c-0.6,0-1.2,0.2-1.8,0.5c-0.5,0.3-1,0.8-1.3,1.3c-0.3,0.6-0.5,1.3-0.5,2.1
			c0,0.7,0.1,1.4,0.5,2.1c0.3,0.6,0.7,1,1.3,1.4c0.5,0.3,1.1,0.5,1.8,0.5c0.6,0,1.2-0.2,1.8-0.5c0.5-0.3,1-0.8,1.3-1.3
			C-20563.4-18859.1-20563.2-18859.8-20563.2-18860.6L-20563.2-18860.6z M-20556.8-18864.1c0.3-0.6,0.7-1.1,1.3-1.4
			c0.6-0.3,1.3-0.5,2.1-0.5v1.8h-0.5c-1.9,0-2.9,1.1-2.9,3.2v5.7h-1.7v-10.4h1.7L-20556.8-18864.1z M-20538.9-18865.9
			c0.8,0,1.5,0.2,2.2,0.5c0.6,0.3,1.2,0.9,1.5,1.5c0.4,0.8,0.6,1.6,0.6,2.5v6.1h-1.7v-5.9c0.1-0.9-0.2-1.7-0.8-2.4
			c-0.5-0.6-1.3-0.9-2.1-0.8c-0.8,0-1.6,0.3-2.1,0.9c-0.6,0.7-0.9,1.6-0.8,2.5v5.7h-1.7v-5.9c0.1-0.9-0.2-1.7-0.8-2.4
			c-0.5-0.6-1.3-0.9-2.1-0.8c-0.8,0-1.6,0.3-2.1,0.9c-0.6,0.7-0.9,1.6-0.8,2.5v5.7h-1.7v-10.4h1.7v1.5c0.3-0.5,0.8-1,1.4-1.3
			c0.6-0.3,1.2-0.4,1.9-0.4c0.8,0,1.6,0.2,2.3,0.6c0.7,0.4,1.2,1,1.5,1.7c0.3-0.7,0.8-1.3,1.4-1.7
			C-20540.5-18865.7-20539.7-18865.9-20538.9-18865.9z M-20527.3-18855.2c-0.9,0-1.8-0.2-2.7-0.7c-0.8-0.4-1.4-1.1-1.9-1.9
			c-0.5-0.9-0.7-1.9-0.7-2.8c0-1,0.2-2,0.7-2.8c0.4-0.8,1.1-1.4,1.9-1.9c0.8-0.4,1.7-0.7,2.7-0.7c0.9,0,1.9,0.2,2.7,0.7
			c0.8,0.4,1.5,1.1,1.9,1.9c0.5,0.9,0.7,1.8,0.7,2.8c0,1-0.2,2-0.7,2.8c-0.5,0.8-1.1,1.5-1.9,1.9
			C-20525.5-18855.4-20526.4-18855.1-20527.3-18855.2z M-20527.3-18856.7c0.6,0,1.2-0.1,1.7-0.4c0.6-0.3,1-0.8,1.3-1.3
			c0.4-0.7,0.5-1.4,0.5-2.1c0-0.7-0.1-1.5-0.5-2.1c-0.3-0.5-0.7-1-1.3-1.3c-0.5-0.3-1.1-0.4-1.7-0.4c-0.6,0-1.2,0.1-1.7,0.4
			c-0.5,0.3-1,0.8-1.3,1.3c-0.3,0.7-0.5,1.4-0.5,2.1c0,0.7,0.1,1.5,0.5,2.2c0.3,0.5,0.7,1,1.2,1.3
			C-20528.5-18856.8-20527.9-18856.7-20527.3-18856.7z M-20514.7-18865.9c1.1,0,2.2,0.4,3.1,1.1c0.8,0.9,1.3,2.1,1.2,3.3v6.1h-1.7
			v-5.9c0.1-0.9-0.2-1.7-0.8-2.4c-0.6-0.6-1.3-0.9-2.1-0.8c-0.8,0-1.6,0.3-2.2,0.9c-0.6,0.7-0.9,1.6-0.8,2.5v5.8h-1.7v-10.4h1.7v1.5
			c0.3-0.5,0.8-1,1.4-1.2C-20516-18865.8-20515.3-18865.9-20514.7-18865.9z M-20503-18855.2c-0.9,0-1.8-0.2-2.7-0.7
			c-0.8-0.4-1.4-1.1-1.9-1.9c-0.5-0.9-0.7-1.9-0.7-2.8c0-1,0.2-2,0.7-2.8c0.4-0.8,1.1-1.4,1.9-1.9c0.8-0.4,1.7-0.7,2.7-0.7
			c0.9,0,1.9,0.2,2.7,0.7c0.8,0.4,1.4,1.1,1.9,1.9c0.5,0.9,0.7,1.8,0.7,2.8c0,1-0.2,2-0.7,2.8c-0.5,0.8-1.1,1.5-1.9,1.9
			C-20501.2-18855.4-20502.1-18855.1-20503-18855.2z M-20503-18856.7c0.6,0,1.2-0.1,1.7-0.4c0.6-0.3,1-0.8,1.3-1.3
			c0.4-0.7,0.5-1.4,0.5-2.1c0-0.7-0.1-1.5-0.5-2.1c-0.3-0.5-0.7-1-1.3-1.3c-0.5-0.3-1.1-0.4-1.7-0.4c-0.6,0-1.2,0.1-1.7,0.4
			c-0.5,0.3-1,0.8-1.3,1.3c-0.3,0.7-0.5,1.4-0.5,2.1c0,0.7,0.1,1.5,0.5,2.1c0.3,0.5,0.7,1,1.2,1.3
			C-20504.2-18856.8-20503.6-18856.7-20503-18856.7z M-20491.1-18865.9c0.8,0,1.6,0.2,2.4,0.6c0.6,0.3,1.2,0.9,1.5,1.5v-1.9h1.7
			v10.6c0,0.9-0.2,1.8-0.6,2.5c-0.4,0.7-1,1.3-1.7,1.7c-0.8,0.4-1.7,0.6-2.6,0.6c-1.2,0-2.4-0.3-3.4-1c-0.9-0.6-1.5-1.6-1.6-2.6h1.7
			c0.2,0.6,0.6,1.2,1.2,1.5c0.6,0.4,1.4,0.6,2.1,0.6c0.9,0,1.7-0.3,2.3-0.9c0.6-0.7,1-1.6,0.9-2.5v-2.2c-0.4,0.6-0.9,1.2-1.5,1.5
			c-0.7,0.4-1.5,0.6-2.4,0.6c-0.9,0-1.8-0.2-2.5-0.7c-0.8-0.5-1.4-1.1-1.8-1.9c-0.4-0.9-0.7-1.8-0.6-2.8c0-1,0.2-1.9,0.6-2.8
			c0.4-0.8,1-1.4,1.8-1.9C-20492.9-18865.7-20492-18865.9-20491.1-18865.9z M-20487.2-18860.6c0-0.7-0.1-1.4-0.5-2.1
			c-0.3-0.6-0.7-1-1.3-1.3c-0.5-0.3-1.2-0.5-1.8-0.5c-0.6,0-1.2,0.2-1.8,0.5c-0.5,0.3-1,0.8-1.3,1.3c-0.3,0.6-0.5,1.3-0.5,2.1
			c0,0.7,0.1,1.4,0.5,2.1c0.3,0.6,0.7,1,1.3,1.3c0.5,0.3,1.1,0.5,1.8,0.5c0.6,0,1.2-0.2,1.8-0.5c0.5-0.3,1-0.8,1.3-1.3
			C-20487.4-18859.1-20487.2-18859.8-20487.2-18860.6z M-20480.8-18864.1c0.3-0.6,0.7-1.1,1.3-1.4c0.6-0.3,1.3-0.5,2.1-0.5v1.8h-0.5
			c-1.9,0-2.9,1.1-2.9,3.2v5.7h-1.7v-10.4h1.7L-20480.8-18864.1z M-20476.1-18860.6c0-1,0.2-1.9,0.6-2.8c0.4-0.8,1-1.4,1.8-1.9
			c0.8-0.4,1.6-0.7,2.5-0.7c0.8,0,1.7,0.2,2.4,0.6c0.6,0.3,1.1,0.9,1.5,1.5v-1.9h1.7v10.4h-1.7v-1.9c-0.4,0.6-0.9,1.2-1.5,1.5
			c-0.7,0.4-1.5,0.6-2.4,0.6c-0.9,0-1.8-0.2-2.5-0.7c-0.8-0.5-1.4-1.1-1.8-1.9C-20475.9-18858.6-20476.1-18859.6-20476.1-18860.6
			L-20476.1-18860.6z M-20467.3-18860.6c0-0.7-0.1-1.4-0.5-2.1c-0.3-0.6-0.7-1-1.3-1.3c-0.5-0.3-1.2-0.5-1.8-0.5
			c-0.6,0-1.2,0.2-1.8,0.5c-0.5,0.3-1,0.8-1.3,1.3c-0.3,0.6-0.5,1.3-0.5,2.1c0,0.7,0.1,1.4,0.5,2.1c0.3,0.6,0.7,1,1.3,1.3
			c0.5,0.3,1.1,0.5,1.8,0.5c0.6,0,1.2-0.2,1.8-0.5c0.5-0.3,1-0.8,1.3-1.3C-20467.5-18859.1-20467.3-18859.8-20467.3-18860.6
			L-20467.3-18860.6z M-20450.1-18865.9c0.8,0,1.5,0.2,2.2,0.5c0.6,0.3,1.2,0.9,1.5,1.5c0.4,0.8,0.6,1.6,0.6,2.5v6.1h-1.7v-5.9
			c0.1-0.9-0.2-1.7-0.8-2.4c-0.5-0.6-1.3-0.9-2.1-0.8c-0.8,0-1.6,0.3-2.1,0.9c-0.6,0.7-0.9,1.6-0.8,2.5v5.7h-1.7v-5.9
			c0.1-0.9-0.2-1.7-0.8-2.4c-0.5-0.6-1.3-0.9-2.1-0.8c-0.8,0-1.6,0.3-2.1,0.9c-0.6,0.7-0.9,1.6-0.8,2.5v5.7h-1.7v-10.4h1.7v1.5
			c0.3-0.5,0.8-1,1.4-1.3c0.6-0.3,1.2-0.4,1.9-0.4c0.8,0,1.6,0.2,2.3,0.6c0.7,0.4,1.2,1,1.5,1.7c0.3-0.7,0.8-1.3,1.4-1.7
			C-20451.7-18865.7-20450.9-18865.9-20450.1-18865.9z M-20424.1-18865.7l-3.2,10.4h-1.8l-2.5-8.3l-2.5,8.3h-1.8l-3.3-10.4h1.8
			l2.4,8.7l2.6-8.7h1.8l2.5,8.8l2.4-8.8L-20424.1-18865.7z M-20413.4-18865.7l-6.3,15.3h-1.8l2.1-5l-4.2-10.3h1.9l3.3,8.4l3.2-8.4
			L-20413.4-18865.7z M-20397.8-18865.7l-3.2,10.4h-1.8l-2.5-8.3l-2.5,8.3h-1.8l-3.3-10.4h1.8l2.4,8.7l2.6-8.7h1.8l2.5,8.8l2.4-8.8
			L-20397.8-18865.7z M-20391.6-18855.2c-0.9,0-1.8-0.2-2.7-0.7c-0.8-0.4-1.4-1.1-1.9-1.9c-0.5-0.9-0.7-1.9-0.7-2.8
			c0-1,0.2-2,0.7-2.8c0.4-0.8,1.1-1.4,1.9-1.9c0.8-0.4,1.7-0.7,2.7-0.7c0.9,0,1.9,0.2,2.7,0.7c0.8,0.4,1.4,1.1,1.9,1.9
			c0.5,0.9,0.7,1.8,0.7,2.8c0,1-0.2,2-0.7,2.8c-0.5,0.8-1.1,1.5-1.9,1.9C-20389.7-18855.4-20390.7-18855.1-20391.6-18855.2z
			 M-20391.6-18856.7c0.6,0,1.2-0.1,1.7-0.4c0.6-0.3,1-0.8,1.3-1.3c0.4-0.7,0.5-1.4,0.5-2.1c0-0.7-0.1-1.5-0.5-2.1
			c-0.3-0.5-0.7-1-1.3-1.3c-0.5-0.3-1.1-0.4-1.7-0.4c-0.6,0-1.2,0.1-1.7,0.4c-0.5,0.3-1,0.8-1.3,1.3c-0.3,0.7-0.5,1.4-0.5,2.1
			c0,0.7,0.1,1.5,0.5,2.1c0.3,0.5,0.7,1,1.2,1.3C-20392.8-18856.8-20392.2-18856.7-20391.6-18856.7z M-20382.7-18856.8h5.1v1.4h-7.1
			v-1.4l5.1-7.6h-5v-1.4h7v1.4L-20382.7-18856.8z M-20366.1-18865.7v10.4h-1.7v-1.5c-0.3,0.5-0.8,1-1.4,1.2
			c-0.6,0.3-1.3,0.5-1.9,0.4c-0.8,0-1.5-0.2-2.2-0.5c-0.6-0.3-1.2-0.9-1.5-1.5c-0.4-0.8-0.6-1.6-0.6-2.5v-6.1h1.7v5.9
			c-0.1,0.9,0.2,1.7,0.8,2.4c0.6,0.6,1.3,0.9,2.1,0.8c0.8,0,1.6-0.3,2.2-0.9c0.6-0.7,0.9-1.6,0.8-2.5v-5.7L-20366.1-18865.7z
			 M-20353.6-18855.2c-0.9,0-1.8-0.2-2.6-0.7c-0.8-0.4-1.4-1.1-1.9-1.9c-0.5-0.9-0.7-1.9-0.7-2.8c0-1,0.2-2,0.7-2.8
			c0.4-0.8,1.1-1.4,1.9-1.9c0.8-0.4,1.7-0.7,2.7-0.7c0.9,0,1.9,0.2,2.7,0.7c0.8,0.4,1.5,1.1,1.9,1.9c0.5,0.9,0.7,1.8,0.7,2.8
			c0,1-0.2,2-0.7,2.8c-0.5,0.8-1.1,1.5-1.9,1.9C-20351.7-18855.4-20352.6-18855.1-20353.6-18855.2z M-20353.6-18856.7
			c0.6,0,1.2-0.1,1.7-0.4c0.6-0.3,1-0.8,1.3-1.3c0.4-0.7,0.5-1.4,0.5-2.1c0-0.7-0.1-1.5-0.5-2.1c-0.3-0.5-0.7-1-1.3-1.3
			c-0.5-0.3-1.1-0.4-1.7-0.4c-0.6,0-1.2,0.1-1.7,0.4c-0.5,0.3-1,0.8-1.3,1.3c-0.3,0.7-0.5,1.4-0.5,2.1c0,0.7,0.1,1.5,0.5,2.1
			c0.3,0.5,0.7,1,1.2,1.3C-20354.7-18856.8-20354.2-18856.7-20353.6-18856.7z M-20346.6-18860.6c0-1,0.2-1.9,0.6-2.8
			c0.4-0.8,1-1.4,1.8-1.9c0.8-0.4,1.6-0.7,2.5-0.7c0.8,0,1.6,0.2,2.3,0.6c0.7,0.3,1.2,0.8,1.6,1.5v-5.5h1.7v14.1h-1.7v-2
			c-0.4,0.6-0.9,1.2-1.5,1.5c-0.7,0.4-1.5,0.6-2.4,0.6c-0.9,0-1.8-0.2-2.5-0.7c-0.8-0.5-1.4-1.1-1.8-1.9
			C-20346.4-18858.6-20346.6-18859.6-20346.6-18860.6z M-20337.8-18860.6c0-0.7-0.1-1.4-0.5-2.1c-0.3-0.6-0.7-1-1.3-1.3
			c-0.5-0.3-1.2-0.5-1.8-0.5c-0.6,0-1.2,0.2-1.8,0.5c-0.5,0.3-1,0.8-1.3,1.3c-0.3,0.6-0.5,1.3-0.5,2.1c0,0.7,0.1,1.4,0.5,2.1
			c0.3,0.6,0.7,1,1.3,1.3c0.5,0.3,1.1,0.5,1.8,0.5c0.6,0,1.2-0.2,1.8-0.5c0.5-0.3,1-0.8,1.3-1.3
			C-20337.9-18859.1-20337.7-18859.8-20337.8-18860.6z M-20331.4-18863.8c0.4-0.6,0.9-1.1,1.5-1.5c0.7-0.4,1.5-0.6,2.4-0.6
			c0.9,0,1.8,0.2,2.5,0.7c0.8,0.4,1.4,1.1,1.8,1.9c0.4,0.9,0.7,1.8,0.6,2.8c0,1-0.2,1.9-0.6,2.8c-0.4,0.8-1,1.5-1.8,1.9
			c-0.8,0.5-1.6,0.7-2.5,0.7c-0.8,0-1.6-0.2-2.3-0.6c-0.6-0.4-1.2-0.9-1.5-1.5v6.9h-1.7v-15.4h1.7L-20331.4-18863.8z
			 M-20324.3-18860.6c0-0.7-0.1-1.4-0.5-2.1c-0.3-0.6-0.7-1-1.3-1.3c-0.5-0.3-1.2-0.5-1.8-0.5c-0.6,0-1.2,0.2-1.8,0.5
			c-0.5,0.3-1,0.8-1.3,1.3c-0.3,0.6-0.5,1.3-0.5,2c0,0.7,0.2,1.4,0.5,2.1c0.3,0.6,0.7,1,1.3,1.3c0.5,0.3,1.1,0.5,1.8,0.5
			c0.6,0,1.2-0.2,1.8-0.5c0.5-0.3,1-0.8,1.3-1.3C-20324.4-18859.1-20324.3-18859.8-20324.3-18860.6L-20324.3-18860.6z
			 M-20320.9-18860.6c0-1,0.2-1.9,0.6-2.8c0.4-0.8,1-1.4,1.8-1.9c0.8-0.4,1.6-0.7,2.5-0.7c0.8,0,1.7,0.2,2.4,0.6
			c0.6,0.3,1.1,0.9,1.5,1.5v-1.9h1.7v10.4h-1.7v-1.9c-0.4,0.6-0.9,1.2-1.5,1.5c-0.7,0.4-1.5,0.6-2.4,0.6c-0.9,0-1.8-0.2-2.5-0.7
			c-0.8-0.5-1.4-1.1-1.8-1.9C-20320.7-18858.6-20320.9-18859.6-20320.9-18860.6L-20320.9-18860.6z M-20312.1-18860.6
			c0-0.7-0.1-1.4-0.5-2.1c-0.3-0.6-0.7-1-1.3-1.3c-0.5-0.3-1.2-0.5-1.8-0.5c-0.6,0-1.2,0.2-1.8,0.5c-0.5,0.3-1,0.8-1.3,1.3
			c-0.3,0.6-0.5,1.3-0.5,2.1c0,0.7,0.1,1.4,0.5,2.1c0.3,0.6,0.7,1,1.3,1.3c0.5,0.3,1.1,0.5,1.8,0.5c0.6,0,1.2-0.2,1.8-0.5
			c0.5-0.3,1-0.8,1.3-1.3C-20312.2-18859.1-20312.1-18859.8-20312.1-18860.6L-20312.1-18860.6z M-20308.1-18860.6
			c0-1,0.2-1.9,0.6-2.8c0.4-0.8,1-1.4,1.8-1.9c0.8-0.4,1.6-0.7,2.5-0.7c0.8,0,1.6,0.2,2.3,0.6c0.7,0.3,1.2,0.8,1.6,1.5v-5.5h1.7
			v14.1h-1.7v-2c-0.4,0.6-0.9,1.2-1.5,1.5c-0.7,0.4-1.5,0.6-2.4,0.6c-0.9,0-1.8-0.2-2.5-0.7c-0.8-0.5-1.4-1.1-1.8-1.9
			C-20307.8-18858.6-20308.1-18859.6-20308.1-18860.6L-20308.1-18860.6z M-20299.2-18860.6c0-0.7-0.1-1.4-0.5-2.1
			c-0.3-0.6-0.7-1-1.3-1.3c-0.5-0.3-1.2-0.5-1.8-0.5c-0.6,0-1.2,0.2-1.8,0.5c-0.5,0.3-1,0.8-1.3,1.3c-0.3,0.6-0.5,1.3-0.5,2.1
			c0,0.7,0.1,1.4,0.5,2.1c0.3,0.6,0.7,1,1.3,1.3c0.5,0.3,1.1,0.5,1.8,0.5c0.6,0,1.2-0.2,1.8-0.5c0.5-0.3,1-0.8,1.3-1.3
			C-20299.4-18859.1-20299.2-18859.8-20299.2-18860.6L-20299.2-18860.6z M-20290-18855.2c-0.9,0-1.8-0.2-2.7-0.7
			c-0.8-0.4-1.4-1.1-1.9-1.9c-0.5-0.9-0.7-1.9-0.7-2.8c0-1,0.2-2,0.7-2.8c0.4-0.8,1.1-1.4,1.9-1.9c0.8-0.4,1.7-0.7,2.7-0.7
			c0.9,0,1.9,0.2,2.7,0.7c0.8,0.4,1.4,1.1,1.9,1.9c0.5,0.9,0.7,1.8,0.7,2.8c0,1-0.2,2-0.7,2.8c-0.5,0.8-1.1,1.5-1.9,1.9
			C-20288.2-18855.4-20289.1-18855.1-20290-18855.2L-20290-18855.2z M-20290-18856.7c0.6,0,1.2-0.1,1.7-0.4c0.6-0.3,1-0.8,1.3-1.3
			c0.4-0.7,0.5-1.4,0.5-2.1c0-0.7-0.1-1.5-0.5-2.1c-0.3-0.5-0.7-1-1.3-1.3c-0.5-0.3-1.1-0.4-1.7-0.4c-0.6,0-1.2,0.1-1.7,0.4
			c-0.5,0.3-1,0.8-1.3,1.3c-0.3,0.7-0.5,1.4-0.5,2.1c0,0.7,0.1,1.5,0.5,2.1c0.3,0.5,0.7,1,1.2,1.3
			C-20291.2-18856.8-20290.6-18856.7-20290-18856.7L-20290-18856.7z M-20288.1-18868.8l-4,2.2v-1.3l4-2.4V-18868.8z
			 M-20268.5-18865.7l-3.2,10.4h-1.8l-2.5-8.3l-2.5,8.3h-1.8l-3.3-10.4h1.8l2.4,8.7l2.6-8.7h1.8l2.5,8.8l2.4-8.8H-20268.5z"/>
		<path id="Path_163" class="st0" d="M-20581.6-18878.3h7.5v2.8h-11.4v-2.6l7.5-11.3h-7.5v-2.8h11.4v2.6L-20581.6-18878.3z
			 M-20567.9-18892.2v16.8h-3.4v-16.8H-20567.9z M-20561.2-18889.5v4.2h5.6v2.7h-5.6v4.4h6.4v2.7h-9.7v-16.8h9.7v2.7H-20561.2z
			 M-20548.4-18878.2h5.5v2.7h-8.9v-16.8h3.4V-18878.2z M-20533-18875.3c-1.5,0-3-0.4-4.3-1.1c-1.3-0.7-2.4-1.8-3.1-3.1
			c-0.8-1.3-1.2-2.9-1.2-4.4c0-1.5,0.4-3.1,1.2-4.4c0.7-1.3,1.8-2.3,3.1-3.1c1.3-0.7,2.8-1.1,4.3-1.1c1.5,0,3,0.4,4.3,1.1
			c1.3,0.7,2.4,1.8,3.1,3.1c0.8,1.3,1.2,2.9,1.1,4.4c0,1.6-0.4,3.1-1.1,4.4c-0.7,1.3-1.8,2.3-3.1,3.1
			C-20530-18875.7-20531.5-18875.3-20533-18875.3z M-20533-18878.3c0.9,0,1.9-0.2,2.7-0.7c0.8-0.5,1.4-1.1,1.8-2
			c0.4-0.9,0.7-1.9,0.6-3c0-1-0.2-2-0.6-2.9c-0.4-0.8-1-1.5-1.8-1.9c-0.8-0.5-1.7-0.7-2.7-0.7c-0.9,0-1.9,0.2-2.7,0.7
			c-0.8,0.5-1.4,1.1-1.8,1.9c-0.4,0.9-0.7,1.9-0.6,2.9c0,1,0.2,2,0.6,3c0.4,0.8,1,1.5,1.8,2
			C-20534.9-18878.5-20533.9-18878.3-20533-18878.3z M-20507.6-18875.5h-3.4l-7.6-11.5v11.5h-3.4v-16.8h3.4l7.6,11.5v-11.5h3.4
			V-18875.5z M-20491-18892.2l-5.7,10.9v5.8h-3.4v-5.8l-5.7-10.9h3.8l3.6,7.7l3.6-7.7H-20491z"/>
		<path id="Path_164" class="st0" d="M-20472.8-18875.3l-6.2-7.6v7.6h-3.4v-17.1h3.4v7.7l6.2-7.7h4.2l-7.1,8.5l7.3,8.6H-20472.8z
			 M-20455.7-18878.6h-6.8l-1.1,3.3h-3.6l6.2-17.2h4l6.2,17.2h-3.6L-20455.7-18878.6z M-20456.7-18881.3l-2.5-7.2l-2.5,7.2H-20456.7
			z M-20445.2-18878h5.6v2.7h-9.1v-17.1h3.4V-18878z M-20434-18889.7v4.3h5.8v2.7h-5.8v4.5h6.5v2.8h-9.9v-17.2h9.9v2.8
			L-20434-18889.7z M-20409.7-18875.3h-3.4l-7.8-11.8v11.8h-3.4v-17.2h3.4l7.8,11.8v-11.8h3.4V-18875.3z M-20400.3-18892.5
			c1.6,0,3.3,0.3,4.8,1.1c1.3,0.7,2.4,1.7,3.2,3c0.8,1.4,1.2,2.9,1.1,4.5c0,1.6-0.3,3.1-1.1,4.5c-0.7,1.3-1.8,2.3-3.2,3
			c-1.5,0.7-3.1,1.1-4.8,1.1h-6v-17.1H-20400.3z M-20400.4-18878.2c1.5,0.1,3-0.4,4.2-1.5c1-1.1,1.6-2.6,1.5-4.1
			c0.1-1.5-0.4-3-1.5-4.2c-1.1-1.1-2.6-1.6-4.2-1.5h-2.4v11.3L-20400.4-18878.2z M-20378.2-18878.6h-6.8l-1.1,3.3h-3.6l6.2-17.2h4
			l6.2,17.2h-3.6L-20378.2-18878.6z M-20379.1-18881.3l-2.5-7.2l-2.5,7.2H-20379.1z M-20362.3-18875.3l-3.8-6.7h-1.6v6.7h-3.4v-17.1
			h6.4c1.2,0,2.3,0.2,3.4,0.7c0.9,0.4,1.6,1.1,2.1,1.9c0.5,0.8,0.7,1.7,0.7,2.7c0,1.1-0.3,2.2-1,3.1c-0.7,1-1.8,1.6-2.9,1.9l4.1,6.9
			H-20362.3z M-20367.7-18884.6h2.9c0.8,0.1,1.5-0.2,2.1-0.7c0.5-0.5,0.7-1.2,0.7-1.9c0-0.7-0.2-1.3-0.7-1.8
			c-0.6-0.5-1.3-0.7-2.1-0.7h-2.9L-20367.7-18884.6z M-20351.8-18878.2h7.7v2.9h-11.7v-2.7l7.7-11.6h-7.7v-2.9h11.7v2.7
			L-20351.8-18878.2z"/>
	</g>
	<g id="sygnet" transform="translate(1544.928 -532.541)">
		<path id="Rectangle_420" class="st0" d="M-22232.9-18594h54c6.6,0,12,5.4,12,12v55c0,6.6-5.4,12-12,12h-54c-6.6,0-12-5.4-12-12
			v-55C-22244.9-18588.6-22239.6-18594-22232.9-18594z"/>
	</g>
</g>
<g>
	<path class="st1" d="M11.5,11.2h55.2c1.2,0,2.3,1,2.3,2.3v10.2H9.3V13.5C9.3,12.3,10.3,11.2,11.5,11.2z"/>
	<path class="st2" d="M18.5,5.5L18.5,5.5c1.8,0,3.3,1.5,3.3,3.3v8c0,1.8-1.5,3.3-3.3,3.3h0c-1.8,0-3.3-1.5-3.3-3.3v-8
		C15.2,7,16.7,5.5,18.5,5.5z"/>
	<path class="st2" d="M59.8,5.5L59.8,5.5c1.8,0,3.3,1.5,3.3,3.3v8c0,1.8-1.5,3.3-3.3,3.3h0c-1.8,0-3.3-1.5-3.3-3.3v-8
		C56.5,7,58,5.5,59.8,5.5z"/>
	<path class="st1" d="M29,30.4h7.7c0.6,0,1.2,0.5,1.2,1.2v7.7c0,0.6-0.5,1.2-1.2,1.2H29c-0.6,0-1.2-0.5-1.2-1.2v-7.7
		C27.8,30.9,28.4,30.4,29,30.4z"/>
	<path class="st2" d="M41.6,30.4h7.7c0.6,0,1.2,0.5,1.2,1.2v7.7c0,0.6-0.5,1.2-1.2,1.2h-7.7c-0.6,0-1.2-0.5-1.2-1.2v-7.7
		C40.5,30.9,41,30.4,41.6,30.4z"/>
	<path class="st1" d="M54.2,30.4H62c0.6,0,1.2,0.5,1.2,1.2v7.7c0,0.6-0.5,1.2-1.2,1.2h-7.7c-0.6,0-1.2-0.5-1.2-1.2v-7.7
		C53.1,30.9,53.6,30.4,54.2,30.4z"/>
	<path class="st1" d="M29,43h7.7c0.6,0,1.2,0.5,1.2,1.2v7.7c0,0.6-0.5,1.2-1.2,1.2H29c-0.6,0-1.2-0.5-1.2-1.2v-7.7
		C27.8,43.5,28.4,43,29,43z"/>
	<path class="st1" d="M16.4,43h7.7c0.6,0,1.2,0.5,1.2,1.2v7.7c0,0.6-0.5,1.2-1.2,1.2h-7.7c-0.6,0-1.2-0.5-1.2-1.2v-7.7
		C15.2,43.5,15.7,43,16.4,43z"/>
	<path class="st1" d="M16.4,55.6h7.7c0.6,0,1.2,0.5,1.2,1.2v7.7c0,0.6-0.5,1.2-1.2,1.2h-7.7c-0.6,0-1.2-0.5-1.2-1.2v-7.7
		C15.2,56.2,15.7,55.6,16.4,55.6z"/>
	<rect x="9.3" y="24.9" class="st2" width="2.4" height="46"/>
	
		<linearGradient id="SVGID_1_" gradientUnits="userSpaceOnUse" x1="11.6663" y1="10.1623" x2="37.0935" y2="10.1623" gradientTransform="matrix(1 0 0 -1 0 79.89)">
		<stop  offset="0" style="stop-color:#346A2D"/>
		<stop  offset="0.3675" style="stop-color:#4C8331"/>
		<stop  offset="0.7445" style="stop-color:#609735"/>
		<stop  offset="1" style="stop-color:#679F37"/>
	</linearGradient>
	<polygon class="st3" points="11.7,70.9 11.7,68.5 37.1,68.5 35.1,70.9 	"/>
	<polygon class="st2" points="68.9,24.9 66.5,24.9 66.5,45.5 68.9,45.1 68.9,24.9 	"/>
	<path class="st4" d="M49.9,70.9H9.3V13.5c0-1.2,1-2.3,2.3-2.3h55.2c1.2,0,2.3,1,2.3,2.3v38.4C68.9,62.4,60.4,70.9,49.9,70.9
		L49.9,70.9z"/>
	<path class="st2" d="M68.9,23.7H9.3v1.7c6.3,1.5,17.3,3,29.8,3s23.6-1.5,29.8-3L68.9,23.7L68.9,23.7z"/>
	<path class="st1" d="M68.9,23.5H9.3v0.8C15.5,25,26.5,26,39.1,26s23.6-1,29.8-1.7L68.9,23.5L68.9,23.5z"/>
	
		<linearGradient id="SVGID_00000158737199456264453450000006544010235395632038_" gradientUnits="userSpaceOnUse" x1="41.1531" y1="10.2927" x2="69.4619" y2="30.6523" gradientTransform="matrix(1 0 0 -1 0 79.89)">
		<stop  offset="0" style="stop-color:#679F37"/>
		<stop  offset="5.720000e-02" style="stop-color:#629A36"/>
		<stop  offset="0.4218" style="stop-color:#487F31"/>
		<stop  offset="0.7475" style="stop-color:#396F2E"/>
		<stop  offset="1" style="stop-color:#346A2D"/>
	</linearGradient>
	<path style="fill:url(#SVGID_00000158737199456264453450000006544010235395632038_);" d="M39,66.7c0,0-1-10.9,7.7-15.4
		c11.7-6,15-1.4,24-5.1c0,0,2.3,13.1-6,20.8s-18.2,5-22.3,2.2c0,0-2.4,1.5-3.8,4c0,0-1.3-0.4-2.4-0.2c0,0,3.3-4.8,5.9-6.3
		c2.7-1.4,18-4.2,22.2-13c0,0-4.4,6.8-15.4,9.1C38.2,65.2,39,66.7,39,66.7L39,66.7z"/>
</g>
</svg>
