<svg width="24" height="24" viewBox="0 0 24 24" fill="none" xmlns="http://www.w3.org/2000/svg">
<g clip-path="url(#clip0_3_40)">
<path d="M12.4696 3.02281C13.8333 4.38652 13.8333 6.59753 12.4696 7.96124C11.1059 9.32495 8.8949 9.32495 7.53119 7.96124C6.16748 6.59753 6.16748 4.38652 7.53119 3.02281C8.8949 1.6591 11.1059 1.6591 12.4696 3.02281Z" stroke="white" stroke-width="1.6" stroke-linecap="round" stroke-linejoin="round"/>
<path d="M14.3636 12.796C13.0646 12.277 11.5406 11.991 10.0006 11.991C5.9526 11.991 2.0006 13.958 2.0006 16.983V17.983C2.0006 18.535 2.4486 18.983 3.0006 18.983H12.4136" stroke="white" stroke-width="1.6" stroke-linecap="round" stroke-linejoin="round"/>
<path d="M17.0006 22C14.2396 22 12.0006 19.762 12.0006 17C12.0006 14.296 14.3006 11.997 17.0046 12C19.7646 12.002 22.0006 14.24 22.0006 17C22.0006 19.761 19.7626 22 17.0006 22Z" stroke="white" stroke-width="1.6" stroke-linecap="round" stroke-linejoin="round"/>
<path d="M18.7671 16.3661L16.9991 18.1341L15.2311 16.3661" stroke="white" stroke-width="1.6" stroke-linecap="round" stroke-linejoin="round"/>
</g>
<defs>
<clipPath id="clip0_3_40">
<rect width="24" height="24" fill="white"/>
</clipPath>
</defs>
</svg>
