<svg width="24" height="24" viewBox="0 0 24 24" fill="none" xmlns="http://www.w3.org/2000/svg">
<g clip-path="url(#clip0_3_62)">
<g clip-path="url(#clip1_3_62)">
<path d="M20.6002 21C21.7052 21 22.6002 20.105 22.6002 19V5.00003C22.6002 3.89503 21.7052 3.00003 20.6002 3.00003C19.4952 3.00003 18.6002 3.89503 18.6002 5.00003V19C18.6002 20.105 19.4952 21 20.6002 21Z" stroke="white" stroke-width="1.6" stroke-linecap="round" stroke-linejoin="round"/>
<path d="M12.6016 21C13.7066 21 14.6016 20.105 14.6016 19V10.684C14.6016 9.57902 13.7066 8.68402 12.6016 8.68402C11.4966 8.68402 10.6016 9.57902 10.6016 10.684V19C10.6016 20.105 11.4966 21 12.6016 21Z" stroke="white" stroke-width="1.6" stroke-linecap="round" stroke-linejoin="round"/>
<path d="M4.59988 21C5.70488 21 6.59988 20.105 6.59988 19V16.368C6.59988 15.263 5.70488 14.368 4.59988 14.368C3.49488 14.368 2.59988 15.263 2.59988 16.368V19C2.59988 20.105 3.49488 21 4.59988 21Z" stroke="white" stroke-width="1.6" stroke-linecap="round" stroke-linejoin="round"/>
</g>
</g>
<defs>
<clipPath id="clip0_3_62">
<rect width="24" height="24" fill="white"/>
</clipPath>
<clipPath id="clip1_3_62">
<rect width="24" height="24" fill="white" transform="matrix(-1 0 0 1 24 0)"/>
</clipPath>
</defs>
</svg>
