<svg width="24" height="24" viewBox="0 0 24 24" fill="none" xmlns="http://www.w3.org/2000/svg">
<g clip-path="url(#clip0_3_7)">
<path d="M3.32031 10.4885V7.74727C3.32031 7.57537 3.36628 7.4066 3.45345 7.25845C3.54062 7.1103 3.66583 6.98815 3.81609 6.90467L6.21201 5.57361" stroke="white" stroke-width="1.60341" stroke-linecap="round" stroke-linejoin="round"/>
<path d="M14.8928 20.0322L12.4685 21.3787C12.3253 21.4583 12.1642 21.5 12.0004 21.5C11.8366 21.5 11.6754 21.4582 11.5323 21.3786L9.10938 20.0322" stroke="white" stroke-width="1.60341" stroke-linecap="round" stroke-linejoin="round"/>
<path d="M20.6808 13.5114V16.2514C20.6808 16.4232 20.6348 16.592 20.5477 16.7401C20.4606 16.8882 20.3355 17.0103 20.1853 17.0938L17.7891 18.4263" stroke="white" stroke-width="1.60341" stroke-linecap="round" stroke-linejoin="round"/>
<path d="M9.10938 3.96775L11.5336 2.6212C11.6768 2.54166 11.838 2.49992 12.0018 2.49994C12.1656 2.49996 12.3267 2.54173 12.4699 2.6213L14.8928 3.96775" stroke="white" stroke-width="1.60341" stroke-linecap="round" stroke-linejoin="round"/>
<path d="M12 2.50085V5.25274" stroke="white" stroke-width="1.60341" stroke-linecap="round" stroke-linejoin="round"/>
<path d="M12 18.7473V21.4999" stroke="white" stroke-width="1.60341" stroke-linecap="round" stroke-linejoin="round"/>
<path d="M3.46094 7.26001L5.85207 8.57816" stroke="white" stroke-width="1.60341" stroke-linecap="round" stroke-linejoin="round"/>
<path d="M18.1484 15.4219L20.54 16.7403" stroke="white" stroke-width="1.60341" stroke-linecap="round" stroke-linejoin="round"/>
<path d="M20.6808 10.4885V7.74854C20.6808 7.5767 20.6348 7.40799 20.5477 7.25988C20.4606 7.11176 20.3355 6.98963 20.1853 6.90612L17.7891 5.57361" stroke="white" stroke-width="1.60341" stroke-linecap="round" stroke-linejoin="round"/>
<path d="M3.32031 13.5114V16.2514C3.32031 16.4232 3.36625 16.592 3.45336 16.7401C3.54047 16.8882 3.6656 17.0103 3.81577 17.0938L6.21201 18.4263" stroke="white" stroke-width="1.60341" stroke-linecap="round" stroke-linejoin="round"/>
<path d="M20.5388 7.26038L18.1484 8.57816" stroke="white" stroke-width="1.60341" stroke-linecap="round" stroke-linejoin="round"/>
<path d="M11.5461 15.8808L8.831 14.3293C8.69247 14.2501 8.57733 14.1357 8.49725 13.9977C8.41717 13.8597 8.37499 13.703 8.375 13.5435V10.4566C8.37499 10.297 8.41717 10.1403 8.49725 10.0023C8.57733 9.86429 8.69247 9.74991 8.831 9.67075L11.5461 8.11925C11.6829 8.04111 11.8377 8 11.9952 8C12.1527 8 12.3074 8.04111 12.4442 8.11925L15.1593 9.67075C15.2979 9.74991 15.413 9.86429 15.4931 10.0023C15.5732 10.1403 15.6153 10.297 15.6153 10.4566V13.5435C15.6153 13.703 15.5732 13.8597 15.4931 13.9977C15.413 14.1357 15.2979 14.2501 15.1593 14.3293L12.4441 15.8808C12.3074 15.9589 12.1526 16 11.9951 16C11.8376 16 11.6829 15.9589 11.5461 15.8808Z" stroke="white" stroke-width="1.60341" stroke-linecap="round" stroke-linejoin="round"/>
<path d="M8.50781 10.0023L12.0038 12" stroke="white" stroke-width="1.60341" stroke-linecap="round" stroke-linejoin="round"/>
<path d="M15.496 10.0023L12 12" stroke="white" stroke-width="1.60341" stroke-linecap="round" stroke-linejoin="round"/>
<path d="M12 11.9999V15.9986" stroke="white" stroke-width="1.60341" stroke-linecap="round" stroke-linejoin="round"/>
<path d="M5.84494 15.4219L3.45312 16.7404" stroke="white" stroke-width="1.60341" stroke-linecap="round" stroke-linejoin="round"/>
</g>
<defs>
<clipPath id="clip0_3_7">
<rect width="24" height="24" fill="white"/>
</clipPath>
</defs>
</svg>
