<svg width="18" height="18" viewBox="0 0 18 18" fill="currentColor" xmlns="http://www.w3.org/2000/svg">
<g clip-path="url(#clip0_1_2749)">
<path d="M3.99972 9.70236L12.01 17.7124C12.1952 17.8979 12.4425 18 12.7062 18C12.9699 18 13.2173 17.8979 13.4025 17.7124L13.9924 17.1227C14.3763 16.7384 14.3763 16.1138 13.9924 15.7301L7.26604 9.00373L13.9999 2.26988C14.1852 2.08447 14.2874 1.8373 14.2874 1.57374C14.2874 1.30989 14.1852 1.06272 13.9999 0.877163L13.41 0.287558C13.2246 0.102144 12.9774 1.14527e-07 12.7137 1.37581e-07C12.45 1.60635e-07 12.2027 0.102144 12.0174 0.287558L3.99972 8.30496C3.81402 8.49096 3.71202 8.73929 3.7126 9.00329C3.71202 9.26832 3.81402 9.51651 3.99972 9.70236Z" fill="#BFBFBF"/>
</g>
<defs>
<clipPath id="clip0_1_2749">
<rect width="18" height="18" fill="white" transform="translate(18 18) rotate(180)"/>
</clipPath>
</defs>
</svg>
