<svg width="26" height="27" viewBox="0 0 26 27" fill="none" xmlns="http://www.w3.org/2000/svg">
<path d="M18.9922 2.49078C16.8294 2.49078 14.9334 3.45517 13.5093 5.27974C13.3194 5.52308 13.1501 5.76653 13 6.00231C12.8499 5.76648 12.6806 5.52308 12.4907 5.27974C11.0666 3.45517 9.17059 2.49078 7.00781 2.49078C2.92216 2.49078 0 5.91176 0 10.0168C0 14.7106 3.84704 19.1344 12.4738 24.3604C12.6355 24.4584 12.8177 24.5074 13 24.5074C13.1823 24.5074 13.3645 24.4584 13.5262 24.3605C22.153 19.1344 26 14.7107 26 10.0168C26 5.91395 23.0802 2.49078 18.9922 2.49078ZM21.2853 15.8614C19.4893 17.8654 16.7753 19.9754 13 22.3017C9.22467 19.9754 6.51066 17.8654 4.71468 15.8615C2.909 13.8467 2.03125 11.9349 2.03125 10.0168C2.03125 7.06115 4.02868 4.52203 7.00781 4.52203C8.52495 4.52203 9.81855 5.18168 10.8527 6.4827C11.6796 7.52315 12.028 8.59753 12.0305 8.6052C12.1628 9.02948 12.5556 9.31847 13.0001 9.31847C13.4445 9.31847 13.8373 9.02953 13.9696 8.6052C13.9728 8.59494 14.3108 7.55408 15.1105 6.52952C16.1503 5.19742 17.4563 4.52198 18.9922 4.52198C21.9745 4.52198 23.9688 7.06353 23.9688 10.0168C23.9688 11.9348 23.091 13.8466 21.2853 15.8614Z" fill="#BFBFBF"/>
</svg>
