<svg width="20" height="20" viewBox="0 0 20 20" fill="none" xmlns="http://www.w3.org/2000/svg">
<g clip-path="url(#clip0_1_1562)">
<path d="M14.9996 0.000114441H4.99988C2.25019 0.000114441 0 2.2503 0 4.99999V15.0002C0 17.7492 2.25019 20.0001 4.99988 20.0001H14.9996C17.7493 20.0001 19.9995 17.7492 19.9995 15.0002V4.99999C19.9995 2.2503 17.7493 0.000114441 14.9996 0.000114441ZM18.3328 15.0002C18.3328 16.8377 16.8381 18.3334 14.9996 18.3334H4.99988C3.16218 18.3334 1.66671 16.8377 1.66671 15.0002V4.99999C1.66671 3.16205 3.16218 1.66682 4.99988 1.66682H14.9996C16.8381 1.66682 18.3328 3.16205 18.3328 4.99999V15.0002Z" fill="white"/>
<path d="M15.4179 5.83282C16.1083 5.83282 16.6679 5.27319 16.6679 4.58286C16.6679 3.89252 16.1083 3.33289 15.4179 3.33289C14.7276 3.33289 14.168 3.89252 14.168 4.58286C14.168 5.27319 14.7276 5.83282 15.4179 5.83282Z" fill="white"/>
<path d="M9.99988 4.99988C7.23793 4.99988 5 7.23806 5 9.99976C5 12.7604 7.23793 15.0001 9.99988 15.0001C12.761 15.0001 14.9998 12.7604 14.9998 9.99976C14.9998 7.23806 12.761 4.99988 9.99988 4.99988ZM9.99988 13.3334C8.15915 13.3334 6.66671 11.841 6.66671 9.99976C6.66671 8.15854 8.15915 6.66659 9.99988 6.66659C11.8406 6.66659 13.333 8.15854 13.333 9.99976C13.333 11.841 11.8406 13.3334 9.99988 13.3334Z" fill="white"/>
</g>
<defs>
<clipPath id="clip0_1_1562">
<rect width="20" height="20" fill="white"/>
</clipPath>
</defs>
</svg>
